<svg width="135" height="75" viewBox="0 0 135 75" fill="none" xmlns="http://www.w3.org/2000/svg">
<path d="M54 37.55C54 43.9167 53.3167 49.4333 51.95 54.1C50.5833 58.7667 48.6833 62.6333 46.25 65.7C43.85 68.7667 40.9833 71.05 37.65 72.55C34.35 74.05 30.7667 74.8 26.9 74.8C23.0333 74.8 19.45 74.05 16.15 72.55C12.8833 71.05 10.05 68.7667 7.65 65.7C5.25 62.6333 3.36667 58.7667 2 54.1C0.666667 49.4333 1.41561e-07 43.9167 1.41561e-07 37.55C1.41561e-07 31.1833 0.666667 25.6667 2 21C3.36667 16.3333 5.25 12.4667 7.65 9.4C10.05 6.33333 12.8833 4.06666 16.15 2.6C19.45 1.1 23.0333 0.349998 26.9 0.349998C30.7667 0.349998 34.35 1.1 37.65 2.6C40.9833 4.06666 43.85 6.33333 46.25 9.4C48.6833 12.4667 50.5833 16.3333 51.95 21C53.3167 25.6667 54 31.1833 54 37.55ZM38 37.55C38 32.5167 37.6833 28.4 37.05 25.2C36.4167 21.9667 35.5667 19.4333 34.5 17.6C33.4667 15.7667 32.2833 14.5167 30.95 13.85C29.6167 13.15 28.2667 12.8 26.9 12.8C25.5333 12.8 24.1833 13.15 22.85 13.85C21.55 14.5167 20.3833 15.7667 19.35 17.6C18.35 19.4333 17.5333 21.9667 16.9 25.2C16.3 28.4 16 32.5167 16 37.55C16 42.6167 16.3 46.75 16.9 49.95C17.5333 53.15 18.35 55.6833 19.35 57.55C20.3833 59.3833 21.55 60.65 22.85 61.35C24.1833 62.0167 25.5333 62.35 26.9 62.35C28.2667 62.35 29.6167 62.0167 30.95 61.35C32.2833 60.65 33.4667 59.3833 34.5 57.55C35.5667 55.6833 36.4167 53.15 37.05 49.95C37.6833 46.75 38 42.6167 38 37.55ZM108.558 62.8V74H67.0578V62.8H81.0578V26.05C81.0578 25.1167 81.0745 24.1833 81.1078 23.25C81.1411 22.2833 81.1911 21.3167 81.2578 20.35L72.9578 27.25C72.2245 27.8167 71.4911 28.1667 70.7578 28.3C70.0578 28.4 69.3911 28.4 68.7578 28.3C68.1245 28.1667 67.5578 27.95 67.0578 27.65C66.5578 27.3167 66.1911 26.9833 65.9578 26.65L61.0578 20.15L83.7578 1.1H96.5578V62.8H108.558ZM117.166 66.15C117.166 64.95 117.382 63.8333 117.816 62.8C118.282 61.7667 118.899 60.8667 119.666 60.1C120.466 59.3333 121.399 58.7333 122.466 58.3C123.532 57.8333 124.699 57.6 125.966 57.6C127.199 57.6 128.349 57.8333 129.416 58.3C130.482 58.7333 131.416 59.3333 132.216 60.1C133.016 60.8667 133.632 61.7667 134.066 62.8C134.532 63.8333 134.766 64.95 134.766 66.15C134.766 67.35 134.532 68.4833 134.066 69.55C133.632 70.5833 133.016 71.4833 132.216 72.25C131.416 73.0167 130.482 73.6167 129.416 74.05C128.349 74.4833 127.199 74.7 125.966 74.7C124.699 74.7 123.532 74.4833 122.466 74.05C121.399 73.6167 120.466 73.0167 119.666 72.25C118.899 71.4833 118.282 70.5833 117.816 69.55C117.382 68.4833 117.166 67.35 117.166 66.15Z" fill="#D45235"/>
</svg>
