<svg width="387" height="371" viewBox="0 0 387 371" fill="none" xmlns="http://www.w3.org/2000/svg">
<g filter="url(#filter0_dd)">
<path d="M25 25H274C304.803 25 320.204 25 331.969 30.9946C342.318 36.2677 350.732 44.6816 356.005 55.0305C362 66.7957 362 82.1971 362 113V345.95H113C82.1971 345.95 66.7957 345.95 55.0305 339.955C44.6816 334.682 36.2677 326.268 30.9946 315.919C25 304.154 25 288.753 25 257.95V25Z" fill="#EAECF0"/>
<path d="M25 25H274C304.803 25 320.204 25 331.969 30.9946C342.318 36.2677 350.732 44.6816 356.005 55.0305C362 66.7957 362 82.1971 362 113V345.95H113C82.1971 345.95 66.7957 345.95 55.0305 339.955C44.6816 334.682 36.2677 326.268 30.9946 315.919C25 304.154 25 288.753 25 257.95V25Z" fill="url(#paint0_linear)" fill-opacity="0.4" style="mix-blend-mode:soft-light"/>
<path d="M25.5 25.5H274C289.41 25.5 300.937 25.5004 310.083 26.2477C319.224 26.9945 325.942 28.4847 331.742 31.4401C341.997 36.6652 350.335 45.0027 355.56 55.2575C358.515 61.0579 360.006 67.7764 360.752 76.9168C361.5 86.0631 361.5 97.5903 361.5 113V345.45H113C97.5903 345.45 86.0631 345.45 76.9168 344.702C67.7764 343.956 61.0579 342.465 55.2575 339.51C45.0027 334.285 36.6652 325.947 31.4401 315.693C28.4847 309.892 26.9945 303.174 26.2477 294.033C25.5004 284.887 25.5 273.36 25.5 257.95V25.5Z" stroke="white" stroke-opacity="0.4"/>
</g>
<defs>
<filter id="filter0_dd" x="0" y="0" width="387" height="370.95" filterUnits="userSpaceOnUse" color-interpolation-filters="sRGB">
<feFlood flood-opacity="0" result="BackgroundImageFix"/>
<feColorMatrix in="SourceAlpha" type="matrix" values="0 0 0 0 0 0 0 0 0 0 0 0 0 0 0 0 0 0 127 0" result="hardAlpha"/>
<feOffset dx="9" dy="9"/>
<feGaussianBlur stdDeviation="8"/>
<feColorMatrix type="matrix" values="0 0 0 0 0.6512 0 0 0 0 0.66896 0 0 0 0 0.74 0 0 0 1 0"/>
<feBlend mode="normal" in2="BackgroundImageFix" result="effect1_dropShadow"/>
<feColorMatrix in="SourceAlpha" type="matrix" values="0 0 0 0 0 0 0 0 0 0 0 0 0 0 0 0 0 0 127 0" result="hardAlpha"/>
<feOffset dx="-9" dy="-9"/>
<feGaussianBlur stdDeviation="8"/>
<feColorMatrix type="matrix" values="0 0 0 0 0.979167 0 0 0 0 0.983333 0 0 0 0 1 0 0 0 1 0"/>
<feBlend mode="normal" in2="effect1_dropShadow" result="effect2_dropShadow"/>
<feBlend mode="normal" in="SourceGraphic" in2="effect2_dropShadow" result="shape"/>
</filter>
<linearGradient id="paint0_linear" x1="-116.594" y1="185.491" x2="174.023" y2="494.611" gradientUnits="userSpaceOnUse">
<stop/>
<stop offset="1" stop-color="white"/>
</linearGradient>
</defs>
</svg>
