<svg width="15" height="16" viewBox="0 0 15 16" fill="none" xmlns="http://www.w3.org/2000/svg">
<g clip-path="url(#clip0)">
<path d="M9.43803 0.870195C9.18569 0.594736 8.88427 0.375856 8.55149 0.226418C8.21871 0.0769807 7.86129 0 7.50022 0C7.13916 0 6.78173 0.0769807 6.44895 0.226418C6.11618 0.375856 5.81476 0.594736 5.56241 0.870195L4.97928 1.5082L4.14491 1.4972C3.78374 1.49264 3.42536 1.56515 3.09084 1.71048C2.75633 1.85581 2.45243 2.07102 2.19703 2.34345C1.94162 2.61589 1.73986 2.94004 1.60362 3.29686C1.46737 3.65367 1.39938 4.03595 1.40366 4.4212L1.41303 5.3112L0.816785 5.9332C0.558541 6.20237 0.353341 6.52388 0.213244 6.87884C0.0731459 7.23381 0.000976563 7.61506 0.000976562 8.0002C0.000976563 8.38533 0.0731459 8.76659 0.213244 9.12155C0.353341 9.47651 0.558541 9.79803 0.816785 10.0672L1.41397 10.6892L1.40366 11.5792C1.39938 11.9644 1.46737 12.3467 1.60362 12.7035C1.73986 13.0603 1.94162 13.3845 2.19703 13.6569C2.45243 13.9294 2.75633 14.1446 3.09084 14.2899C3.42536 14.4352 3.78374 14.5078 4.14491 14.5032L4.97928 14.4932L5.56241 15.1292C5.81476 15.4047 6.11618 15.6235 6.44895 15.773C6.78173 15.9224 7.13916 15.9994 7.50022 15.9994C7.86129 15.9994 8.21871 15.9224 8.55149 15.773C8.88427 15.6235 9.18569 15.4047 9.43803 15.1292L10.0212 14.4922L10.8555 14.5032C11.2167 14.5078 11.5751 14.4352 11.9096 14.2899C12.2441 14.1446 12.548 13.9294 12.8034 13.6569C13.0588 13.3845 13.2606 13.0603 13.3968 12.7035C13.5331 12.3467 13.6011 11.9644 13.5968 11.5792L13.5874 10.6892L14.1837 10.0672C14.4419 9.79803 14.6471 9.47651 14.7872 9.12155C14.9273 8.76659 14.9995 8.38533 14.9995 8.0002C14.9995 7.61506 14.9273 7.23381 14.7872 6.87884C14.6471 6.52388 14.4419 6.20237 14.1837 5.9332L13.5865 5.3112L13.5968 4.4212C13.6011 4.03595 13.5331 3.65367 13.3968 3.29686C13.2606 2.94004 13.0588 2.61589 12.8034 2.34345C12.548 2.07102 12.2441 1.85581 11.9096 1.71048C11.5751 1.56515 11.2167 1.49264 10.8555 1.4972L10.0212 1.5072L9.43803 0.871195V0.870195ZM9.7071 6.8542L6.8946 9.8542C6.85105 9.90076 6.79933 9.9377 6.74238 9.96291C6.68543 9.98811 6.62438 10.0011 6.56272 10.0011C6.50106 10.0011 6.44001 9.98811 6.38306 9.96291C6.32612 9.9377 6.27439 9.90076 6.23085 9.8542L4.8246 8.3542C4.78101 8.30771 4.74644 8.25252 4.72286 8.19178C4.69927 8.13104 4.68713 8.06594 4.68713 8.0002C4.68713 7.93445 4.69927 7.86935 4.72286 7.80861C4.74644 7.74787 4.78101 7.69268 4.8246 7.6462C4.86818 7.59971 4.91992 7.56283 4.97686 7.53767C5.03381 7.51251 5.09484 7.49956 5.15647 7.49956C5.21811 7.49956 5.27914 7.51251 5.33608 7.53767C5.39302 7.56283 5.44476 7.59971 5.48835 7.6462L6.56272 8.7932L9.04335 6.1462C9.13136 6.05231 9.25074 5.99956 9.37522 5.99956C9.4997 5.99956 9.61908 6.05231 9.7071 6.1462C9.79512 6.24008 9.84456 6.36742 9.84456 6.5002C9.84456 6.63297 9.79512 6.76031 9.7071 6.8542Z" fill="#1A3570"/>
</g>
<defs>
<clipPath id="clip0">
<rect width="15" height="16" fill="white"/>
</clipPath>
</defs>
</svg>
