<svg width="56" height="56" viewBox="0 0 56 56" fill="none" xmlns="http://www.w3.org/2000/svg">
<path d="M39.083 4.66602H15.7497C13.176 4.66602 11.083 6.75902 11.083 9.33268V46.666C11.083 49.2397 13.176 51.3327 15.7497 51.3327H39.083C41.6567 51.3327 43.7497 49.2397 43.7497 46.666V9.33268C43.7497 6.75902 41.6567 4.66602 39.083 4.66602ZM15.7497 46.666V9.33268H39.083L39.0877 46.666H15.7497Z" fill="#D45235"/>
<path d="M27.4163 44.3327C28.705 44.3327 29.7497 43.288 29.7497 41.9993C29.7497 40.7107 28.705 39.666 27.4163 39.666C26.1277 39.666 25.083 40.7107 25.083 41.9993C25.083 43.288 26.1277 44.3327 27.4163 44.3327Z" fill="#D45235"/>
</svg>
