<svg width="529" height="366" viewBox="0 0 529 366" fill="none" xmlns="http://www.w3.org/2000/svg">
<g clip-path="url(#clip0)">
<path opacity="0.18" d="M229.093 19.2238C224.959 21.1389 220.898 23.2136 216.909 25.4914C170.275 52.0415 137.639 101.877 86.581 118.431C72.7577 122.914 57.919 124.148 46.7501 133.955C38.6916 141.311 31.6784 149.737 25.9063 158.996C13.7016 178.184 5.60207 199.692 2.11797 222.165C-4.85897 265.69 4.90294 314.699 39.5265 344.514C65.5486 366.943 104.277 368.075 136.87 362.011C155.567 358.543 173.481 351.782 191.989 347.328C224.348 339.573 258.01 338.973 290.624 345.573C312.135 349.925 332.921 357.426 354.446 362.025C369.909 365.347 386.009 367.19 401.791 365.144C416.934 363.186 428.611 355.961 442.405 350.128C468.645 339 495.203 324.811 511.928 300.887C524.793 282.139 530.736 259.499 528.739 236.848C526.563 214.231 517.309 192.878 502.296 175.826C495.639 168.166 486.936 161.405 483.686 151.655C480.437 141.906 479.93 130.531 478.914 120.535C476.709 98.613 474.069 76.0672 463.394 56.8002C451.529 35.386 430.511 20.0508 407.578 11.4184C384.646 2.78595 359.857 0.319543 335.357 0.0293778C299.08 -0.333329 261.846 4.01915 229.093 19.2238Z" fill="#D45235"/>
<path d="M471.081 210.399L446.423 227.809L336.939 304.746C328.53 310.807 319.773 316.368 310.713 321.402C303.33 325.392 299.109 333.008 290.174 335.04C285.737 335.811 281.194 335.732 276.786 334.807C269.579 333.634 262.488 331.833 255.594 329.425C254.753 329.135 253.549 328.961 253.172 329.773C252.795 330.586 254.825 330.499 254.115 329.947C189.93 321.242 128.602 298.029 64.9974 285.842C64.2584 285.705 63.5839 285.332 63.0755 284.778C62.5672 284.224 62.2524 283.521 62.1788 282.772C62.1051 282.024 62.2766 281.272 62.6672 280.63C63.0579 279.988 63.6466 279.49 64.3447 279.212C69.465 277.123 75.0494 276.31 80.6919 275.208C90.8454 273.336 100.854 271.508 110.978 269.854C131.383 266.319 151.985 264.032 172.669 263.006C207.017 261.555 241.684 265.226 275.655 259.901C307.928 254.852 338.302 241.955 368.328 229.042C375.58 225.937 382.963 222.717 388.635 217.262C393.088 212.982 396.656 207.338 402.327 204.523C408.216 201.622 415.382 202.129 421.706 202.42C438.387 203.159 454.865 206.554 471.081 210.399Z" fill="url(#paint0_linear)"/>
<path d="M67.7822 264.239L211.15 201.853C214.256 200.295 217.76 199.713 221.202 200.185L398.527 215.259C401.921 215.738 401.312 230.333 398.527 232.669L293.8 321.837C290.646 324.622 286.87 326.61 282.789 327.635C278.708 328.66 274.441 328.691 270.346 327.727L69.0441 278.762C66.4767 278.138 65.3744 265.428 67.7822 264.239Z" fill="#8CC5F9"/>
<path d="M67.7822 264.239L211.15 201.853C214.256 200.295 217.76 199.713 221.202 200.185L398.527 215.259C401.921 215.738 401.312 230.333 398.527 232.669L293.8 321.837C290.646 324.622 286.87 326.61 282.789 327.635C278.708 328.66 274.441 328.691 270.346 327.727L69.0441 278.762C66.4767 278.138 65.3744 265.428 67.7822 264.239Z" fill="url(#paint1_linear)"/>
<path d="M398.57 222.325L293.844 311.493C290.692 314.282 286.917 316.275 282.835 317.302C278.754 318.33 274.485 318.362 270.389 317.398L69.044 268.418C66.4766 267.794 66.1429 263.732 68.5363 262.527L123.714 231.378L138.219 223.224L182.329 198.43C185.434 196.87 188.938 196.289 192.381 196.761L396.786 214.549C400.18 214.955 401.312 219.989 398.57 222.325Z" fill="#D45235"/>
<path d="M192.366 201.621L379.206 229.259L321.693 275.976L129.951 237.166L192.366 201.621Z" fill="url(#paint2_linear)"/>
<path d="M381.469 234.309C380.918 235.977 379.104 236.833 377.465 237.486C365.516 241.97 353.333 245.806 340.971 248.977C329.236 252.212 316.994 255.476 305.012 253.329C303.508 252.938 301.948 252.81 300.4 252.952C297.847 253.416 295.961 255.491 293.974 257.13C284.067 265.284 269.591 263.427 256.972 261.135C257.518 256.974 257.789 252.781 257.784 248.585C224.031 249.192 190.289 246.891 156.93 241.708C149.678 240.591 130.081 239.706 125.135 233.685C124.524 233.021 124.033 232.255 123.685 231.422L138.19 223.268C138.847 223.297 139.499 223.399 140.133 223.573C178.729 234.278 218.843 238.446 258.814 235.905C259.844 230.696 254.462 224.182 258.553 220.729C259.899 219.771 261.53 219.296 263.18 219.38C269.304 219.142 275.392 220.417 280.905 223.094C284.169 224.69 287.244 226.779 290.769 227.678C294.217 228.363 297.756 228.476 301.241 228.012C323.495 226.346 345.823 225.92 368.124 226.735C371.794 226.866 375.638 227.084 378.756 229.013C380.584 230.116 382.165 232.263 381.469 234.309Z" fill="url(#paint3_linear)"/>
<path d="M172.813 248.744L249.806 264.312L209.99 296.796L129.951 278.834L172.813 248.744Z" fill="url(#paint4_linear)"/>
<path d="M134.317 284.464C135.104 286.046 136.219 287.442 137.587 288.56C138.955 289.678 140.545 290.492 142.251 290.949C147.908 292.313 180.878 300.757 180.878 300.757C180.878 300.757 186.245 301.395 189.219 297.855L134.317 284.464Z" fill="url(#paint5_linear)"/>
<path d="M186.506 196.674L397.381 226.692C398.927 226.907 400.496 226.524 401.769 225.621C403.041 224.717 403.921 223.362 404.227 221.831L434.311 69.8864C434.633 68.2647 434.61 66.5934 434.243 64.9813C433.876 63.3692 433.174 61.8526 432.182 60.5303C431.189 59.2079 429.93 58.1096 428.485 57.3069C427.04 56.5041 425.442 56.015 423.795 55.8714L215.546 37.6055C212.481 37.3369 209.432 38.28 207.054 40.2327C204.677 42.1854 203.158 44.9922 202.825 48.0514L186.506 196.674Z" fill="#8CC5F9"/>
<path d="M186.506 196.674L396.83 226.605C398.529 226.845 400.256 226.426 401.656 225.433C403.056 224.44 404.023 222.949 404.358 221.266L434.311 69.8864C434.633 68.2647 434.61 66.5934 434.243 64.9813C433.876 63.3692 433.174 61.8526 432.182 60.5303C431.189 59.2079 429.93 58.1096 428.485 57.3069C427.04 56.5041 425.442 56.015 423.795 55.8714L215.546 37.6055C212.481 37.3369 209.432 38.28 207.054 40.2327C204.677 42.1854 203.158 44.9922 202.825 48.0514L186.506 196.674Z" fill="url(#paint6_linear)"/>
<path d="M393.566 217.957L423.519 64.6484L211.151 45.0332L194.267 190.188L393.566 217.957Z" fill="white"/>
<path d="M376.102 92.5195L227.149 77.0102L230.529 58.1494L379.525 73.6588C380.784 73.7404 382.012 74.0858 383.129 74.6724C384.247 75.2591 385.228 76.0739 386.01 77.0642C386.793 78.0545 387.358 79.1981 387.67 80.421C387.982 81.6438 388.034 82.9186 387.822 84.1627C387.25 86.7603 385.735 89.0532 383.57 90.5971C381.405 92.1411 378.743 92.8261 376.102 92.5195Z" fill="#D45235"/>
<path opacity="0.56" d="M227.149 77.0095L347.469 89.5591L350.849 70.6403L230.529 58.0762L227.149 77.0095Z" fill="white"/>
<path d="M368.863 85.1564C371.408 84.1612 372.73 81.461 371.816 79.1253C370.903 76.7896 368.1 75.7029 365.556 76.6981C363.012 77.6932 361.69 80.3935 362.603 82.7292C363.517 85.0649 366.319 86.1516 368.863 85.1564Z" stroke="white" stroke-width="1.04" stroke-miterlimit="10"/>
<path d="M370.3 88.7759C370.198 88.5293 368.937 85.0908 368.937 85.0908" stroke="white" stroke-width="1.04" stroke-miterlimit="10"/>
<path opacity="0.18" d="M374.666 119.823L222.653 103.545L223.451 101.05L375.449 117.328L374.666 119.823Z" fill="#8CC5F9"/>
<path opacity="0.18" d="M276.699 99.86L225.365 93.781L226.41 89.3125L277.758 94.9127L276.699 99.86Z" fill="#8CC5F9"/>
<path opacity="0.18" d="M372.78 129.878L220.767 113.6L221.55 111.104L373.563 127.383L372.78 129.878Z" fill="#8CC5F9"/>
<g opacity="0.66">
<path opacity="0.18" d="M268.533 140.019L217.199 133.955L218.244 129.472L269.591 135.072L268.533 140.019Z" fill="#8CC5F9"/>
<path opacity="0.18" d="M366.094 160.882L214.081 144.604L214.878 142.094L366.891 158.387L366.094 160.882Z" fill="#8CC5F9"/>
<path opacity="0.18" d="M362.627 172.518L210.614 156.24L211.412 153.744L363.41 170.022L362.627 172.518Z" fill="#8CC5F9"/>
</g>
<path opacity="0.18" d="M359.682 197.66L207.829 177.828L208.612 175.347L360.465 195.179L359.682 197.66Z" fill="#8CC5F9"/>
<path d="M275.422 183.007C275.422 183.007 120.073 234.453 98.8375 188.273C77.6021 142.094 193.889 129.442 193.889 129.442C193.889 129.442 58.0057 142.979 88.4954 200.025C118.985 257.072 284.691 200.663 284.691 200.663L275.422 183.007Z" fill="#EAF5FE"/>
<path d="M275.785 180.875C275.85 182.989 276.428 185.055 277.468 186.896L281.297 195.079C282.114 197.115 283.26 199.002 284.691 200.664C285.812 201.797 287.185 202.65 288.696 203.154C290.208 203.658 291.818 203.799 293.394 203.566C294.138 203.517 294.857 203.278 295.482 202.872C296.106 202.465 296.616 201.905 296.963 201.245C297.615 199.547 296.513 197.734 295.628 196.152C293.249 191.901 292.234 187.056 291.103 182.326C290.232 178.641 288.463 173.447 283.966 172.924C279.992 172.46 276.017 177.001 275.785 180.875Z" fill="#D45235"/>
<path d="M314.803 161.81C314.803 161.81 281.935 131.735 249.806 161.81C249.806 161.81 274.639 158.604 282.298 172.285L314.803 161.81Z" fill="#D45235"/>
<path d="M328.235 189.304C328.235 189.304 326.669 233.844 282.704 235.73C282.704 235.73 302.387 220.25 297.992 205.19L328.235 189.304Z" fill="#D45235"/>
<path d="M282.298 172.314C282.298 172.314 385.937 112.83 444.203 122.348C444.203 122.348 431.033 165.176 297.949 205.19L282.298 172.314Z" fill="white"/>
<path d="M444.276 122.319C444.276 122.319 431.105 165.147 298.021 205.161L293.278 195.194L282.298 172.315C282.298 172.315 374.289 119.446 433.658 121.332C437.215 121.429 440.762 121.759 444.276 122.319Z" fill="url(#paint7_linear)"/>
<path d="M444.276 122.319C435.065 134.404 403.27 156.675 337.91 180.425C334.216 181.779 330.411 183.133 326.494 184.487C316.196 188.046 305.124 191.615 293.278 195.194L282.312 172.314C282.312 172.314 293.64 165.51 310.96 156.863C320.098 152.293 330.904 147.215 342.595 142.355C375.217 128.79 414.758 116.82 444.276 122.319Z" fill="#EAF5FE"/>
<path d="M364.411 144.532C358.885 146.839 352.676 146.461 346.7 146.853C344.924 146.924 343.162 147.201 341.449 147.68C338.07 148.988 334.987 150.962 332.384 153.483C332.03 153.726 331.765 154.078 331.629 154.484C331.59 154.907 331.692 155.33 331.92 155.689C333.243 158.386 334.765 160.98 336.474 163.45C338.505 166.352 340.898 169.442 340.826 173.011C340.62 175.744 339.559 178.343 337.794 180.44L337.359 181.049C335.267 183.867 332.994 186.547 330.556 189.072C328.757 190.929 329.918 196.602 325.566 195.238C321.781 194.063 323.623 189.565 324.914 187.2L326.364 184.502L328.801 179.99C330.658 176.58 332.543 172.533 330.977 168.978C329.874 166.497 327.336 165.003 324.957 163.668C320.468 161.007 315.761 158.73 310.887 156.864C320.025 152.294 330.832 147.216 342.523 142.355C350.155 142.996 357.822 143.108 365.47 142.689C366.108 143.298 365.209 144.198 364.411 144.532Z" fill="url(#paint8_linear)" fill-opacity="0.2"/>
<path d="M351.501 170.153C358.086 170.153 363.424 164.814 363.424 158.228C363.424 151.641 358.086 146.302 351.501 146.302C344.916 146.302 339.578 151.641 339.578 158.228C339.578 164.814 344.916 170.153 351.501 170.153Z" fill="#D45235"/>
<path d="M351.501 165.946C355.987 165.946 359.624 162.308 359.624 157.821C359.624 153.334 355.987 149.696 351.501 149.696C347.015 149.696 343.378 153.334 343.378 157.821C343.378 162.308 347.015 165.946 351.501 165.946Z" fill="url(#paint9_linear)"/>
<path d="M333.675 132.258C333.675 132.33 331.963 132.04 332.007 132.127C332.398 132.588 332.896 132.947 333.457 133.172C335.509 134.001 337.612 134.698 339.752 135.261C341.885 135.479 342.914 133.462 343.582 131.764C344.118 130.401 344.67 129.037 345.235 127.688C345.669 126.82 345.944 125.881 346.048 124.917C346.069 124.695 346.039 124.472 345.961 124.264C345.822 123.996 345.59 123.789 345.308 123.683C344.88 123.509 344.401 123.509 343.973 123.683C343.19 124.017 342.827 124.902 342.436 125.656C341.522 127.383 340.086 128.79 339.303 130.575C338.717 130.612 338.139 130.419 337.693 130.038L335.154 128.384C335.032 128.287 334.887 128.222 334.734 128.195C334.608 128.189 334.483 128.213 334.369 128.267C334.256 128.32 334.157 128.4 334.081 128.5C333.625 129.051 333.351 129.731 333.298 130.444C333.225 130.808 333.225 131.183 333.298 131.547C333.388 131.801 333.515 132.04 333.675 132.258Z" fill="#FFB27D"/>
<path d="M335.633 128.311L336.532 128.863C336.663 128.863 336.793 129.008 336.837 129.153C336.866 129.257 336.866 129.368 336.837 129.472L336.242 132.112C336.061 133.294 335.636 134.426 334.995 135.435C334.646 135.914 332.094 134.144 331.658 133.911C330.573 133.191 329.625 132.282 328.859 131.227C328.505 130.798 328.234 130.306 328.061 129.777C327.799 128.438 328.004 127.051 328.641 125.845C329.657 123.857 331.368 124.844 332.659 126.062C333.578 126.904 334.573 127.656 335.633 128.311Z" fill="#D45235"/>
<path d="M319.257 194.208C319.301 194.398 319.402 194.57 319.547 194.701C321.615 196.718 324.08 198.285 326.785 199.3C326.949 199.392 327.134 199.442 327.322 199.445C327.502 199.407 327.663 199.306 327.774 199.159C327.886 199.013 327.942 198.831 327.931 198.647C327.894 198.279 327.759 197.928 327.539 197.632C327.007 196.789 326.411 195.989 325.755 195.238C325.144 194.733 324.754 194.009 324.667 193.221C324.724 192.829 324.826 192.444 324.972 192.075C325.407 190.435 322.68 190.102 321.534 190.493C320.886 190.886 320.342 191.429 319.946 192.075C319.549 192.721 319.313 193.452 319.257 194.208Z" fill="#F5FAFE"/>
<path d="M312.584 148.129C312.584 148.129 307.638 155.035 312.729 161.186C316.254 165.452 321.548 168.353 326.422 170.791C327.278 171.226 328.293 171.574 329.12 172.097C330.73 173.112 329.744 173.968 328.888 175.317C326.741 178.77 324.575 182.199 322.39 185.604C321.126 187.328 320.26 189.309 319.851 191.407L325.378 193.09C328.355 188.013 331.751 183.194 335.531 178.683C337.17 176.739 339.288 174.331 338.983 171.632C338.601 169.134 337.503 166.801 335.821 164.915L325.479 152.902L312.584 148.129Z" fill="#473F47"/>
<path d="M336.605 115.123C336.779 115.631 337.272 116.037 337.345 116.574C337.417 117.111 336.866 117.749 336.503 118.344C336.141 118.939 335.894 120.085 335.401 120.883C335.313 121.059 335.17 121.201 334.995 121.289C334.837 121.347 334.67 121.376 334.502 121.376C333.842 121.357 333.189 121.25 332.558 121.057C332.446 120.986 332.313 120.955 332.181 120.97C332.07 121.035 331.988 121.138 331.949 121.26C331.211 122.786 330.857 124.47 330.919 126.164C330.919 126.715 330.919 127.412 330.469 127.687C330.306 127.794 330.113 127.845 329.918 127.832C328.641 127.832 327.67 126.686 327.017 125.555C326.483 124.537 326.069 123.461 325.784 122.348C325.68 122.025 325.641 121.685 325.668 121.347C325.735 120.954 325.873 120.575 326.074 120.23C326.718 118.973 327.238 117.656 327.626 116.298C327.964 114.52 328.571 112.803 329.425 111.206C329.756 110.699 330.238 110.308 330.803 110.089C331.448 109.948 332.119 109.983 332.746 110.19C334.057 110.401 335.236 111.107 336.039 112.164C336.286 112.541 336.402 114.47 336.605 115.123Z" fill="#FFB27D"/>
<path d="M323.884 153.802C322.776 153.979 321.643 153.915 320.562 153.614C318.977 153.296 317.356 153.204 315.746 153.338C314.79 153.578 313.854 153.893 312.947 154.281C312.211 154.479 311.441 154.516 310.69 154.388C309.939 154.26 309.224 153.971 308.595 153.541C308.595 153.324 308.595 153.091 308.595 152.874C308.813 150.93 308 148.173 308.595 146.302C310.727 138.83 312.541 133.244 316.791 126.831C318.009 124.989 322.81 122.624 324.783 121.638C325.231 121.397 325.726 121.253 326.233 121.217C326.818 121.241 327.389 121.399 327.901 121.681C329.657 122.537 330.338 124.133 331.194 125.787C332.191 127.472 332.87 129.326 333.196 131.257C333.413 133.752 334.298 136.088 332.877 138.409C330.918 141.673 327.669 143.879 325.856 147.404C325.535 147.914 325.354 148.5 325.334 149.102C325.334 149.943 325.929 150.712 325.929 151.554C325.869 152.097 325.639 152.607 325.272 153.011C324.905 153.415 324.418 153.692 323.884 153.802Z" fill="#D45235"/>
<path d="M335.067 142.036C335.763 142.355 336.518 142.631 337.112 142.863C340.521 143.95 344.056 144.593 347.629 144.778C352.123 145.346 356.665 145.429 361.176 145.025C363.019 144.884 364.805 144.323 366.398 143.385C366.862 143.081 367.341 142.529 367.109 142.022C366.974 141.795 366.771 141.618 366.529 141.514C364.787 140.595 362.822 140.182 360.857 140.324C360.857 139.642 360.683 138.772 360.016 138.714C359.349 138.656 358.957 139.57 358.565 140.165C357.695 141.615 355.664 141.775 354.04 141.761C350.285 141.816 346.536 141.431 342.871 140.614C341.033 140.176 339.252 139.529 337.562 138.685C336.474 138.133 334.284 135.856 333.21 137.074C332.137 138.293 331.136 139.106 332.587 140.397C333.326 141.066 334.162 141.619 335.067 142.036Z" fill="#FFB27D"/>
<path d="M329.41 128.036C329.41 128.036 335.096 136.059 335.923 136.538C336.75 137.017 330.817 142.849 330.817 142.849C330.817 142.849 323.942 135.406 323.144 131.605C322.346 127.804 325.9 125.192 329.41 128.036Z" fill="#D45235"/>
<path d="M335.995 111.38C335.751 111.714 335.441 111.994 335.084 112.204C334.727 112.413 334.332 112.548 333.921 112.598C333.206 112.712 332.484 112.775 331.76 112.787C331.76 112.787 331.629 112.787 331.586 112.787C331.559 112.816 331.54 112.851 331.527 112.888C331.515 112.926 331.51 112.965 331.513 113.005C331.483 113.562 331.338 114.107 331.089 114.606C330.839 115.105 330.49 115.548 330.063 115.906C329.95 115.977 329.86 116.077 329.802 116.196C329.743 116.366 329.743 116.55 329.802 116.719C329.903 117.299 329.903 117.893 329.802 118.474C329.719 119.064 329.444 119.61 329.018 120.027C328.912 120.1 328.836 120.207 328.801 120.331C328.8 120.439 328.83 120.545 328.888 120.636C329.088 121.242 329.046 121.902 328.772 122.478C328.226 122.06 327.595 121.767 326.922 121.622C326.25 121.476 325.554 121.481 324.884 121.637C324.477 121.672 324.092 121.834 323.782 122.101C321.838 124.147 320.243 126.57 318.198 128.543C317.327 129.384 316.355 130.124 315.543 131.038C314.318 132.533 313.339 134.212 312.642 136.015C312.11 137.427 311.404 138.768 310.539 140.004C310.104 140.619 309.552 141.142 308.915 141.543C308.278 141.944 307.568 142.215 306.826 142.34C306.123 142.398 305.416 142.309 304.749 142.08C304.082 141.85 303.471 141.484 302.953 141.006C302.047 140.175 301.401 139.101 301.092 137.911C300.783 136.722 300.825 135.469 301.212 134.303C301.401 133.942 301.453 133.524 301.357 133.128C301.244 132.908 301.086 132.715 300.893 132.562C300.004 131.635 299.507 130.4 299.507 129.116C299.507 127.832 300.004 126.597 300.893 125.67C301.865 124.756 304.2 123.871 304.331 122.362C304.461 120.854 303.112 119.359 303.663 117.618C303.863 117.089 304.152 116.598 304.519 116.167C305.218 115.14 306.167 114.306 307.275 113.744C308.397 113.366 309.573 113.175 310.756 113.179C314.557 112.918 318.531 111.728 321.041 108.826C321.605 108.074 322.226 107.366 322.897 106.708C323.684 106.099 324.58 105.646 325.537 105.373C327.838 104.493 330.377 104.457 332.703 105.272C333.511 105.609 334.232 106.125 334.812 106.781C335.392 107.437 335.817 108.215 336.053 109.058C336.21 109.427 336.286 109.825 336.276 110.225C336.266 110.626 336.17 111.019 335.995 111.38Z" fill="#010101"/>
<path d="M335.575 117.662C335.016 117.643 334.46 117.594 333.907 117.517C333.747 117.821 334.472 118.967 334.632 119.054C334.708 119.121 334.806 119.157 334.907 119.157C335.009 119.157 335.107 119.121 335.183 119.054C335.247 118.963 335.291 118.859 335.314 118.75L335.575 117.647" fill="white"/>
<path d="M334.269 115.196C334.509 115.196 334.704 115.001 334.704 114.76C334.704 114.52 334.509 114.325 334.269 114.325C334.029 114.325 333.834 114.52 333.834 114.76C333.834 115.001 334.029 115.196 334.269 115.196Z" fill="#231F20"/>
<path d="M344.631 120.247L344.004 120.128C343.611 120.053 343.231 120.311 343.156 120.705L342.359 124.895C342.284 125.289 342.542 125.668 342.936 125.743L343.562 125.863C343.956 125.938 344.336 125.679 344.411 125.286L345.208 121.096C345.283 120.702 345.025 120.322 344.631 120.247Z" fill="#8CC5F9"/>
<path d="M343.364 120.593C342.983 120.634 342.62 120.778 342.316 121.011C342.011 121.244 341.777 121.556 341.638 121.913C341.518 122.379 341.542 122.869 341.708 123.32C341.874 123.771 342.173 124.161 342.566 124.438C343.364 124.973 344.28 125.307 345.235 125.41C345.375 125.458 345.524 125.472 345.67 125.452C345.816 125.432 345.955 125.378 346.076 125.294C346.201 125.156 346.282 124.984 346.309 124.801C346.537 124.154 346.631 123.468 346.584 122.784C346.385 122.102 345.955 121.51 345.367 121.11C344.78 120.71 344.072 120.528 343.364 120.593Z" fill="#8CC5F9"/>
<path d="M340.724 117.473L340.579 119.127C340.531 119.346 340.571 119.576 340.691 119.765C340.81 119.955 340.999 120.091 341.218 120.143C343.997 120.338 346.717 121.046 349.239 122.232C350.606 123.001 351.907 123.885 353.126 124.872C353.619 125.264 354.33 124.872 354.446 124.031L355.737 115.326C355.853 114.557 355.302 114.02 354.722 114.31C352.299 115.544 346.86 117.807 341.827 116.414C341.29 116.284 340.782 116.791 340.724 117.473Z" fill="#D45235"/>
<path d="M319.605 192.423C318.911 192.87 318.397 193.548 318.155 194.338C318.075 194.583 318.075 194.847 318.155 195.092C318.256 195.311 318.411 195.5 318.604 195.644C320.924 197.71 323.533 199.426 326.35 200.736C326.707 200.919 327.096 201.032 327.496 201.07C327.694 201.092 327.895 201.062 328.078 200.984C328.261 200.905 328.42 200.779 328.54 200.62C328.678 200.388 328.748 200.121 328.743 199.851C328.759 199.353 328.674 198.857 328.493 198.393C328.312 197.929 328.04 197.506 327.692 197.149C327.344 196.793 326.927 196.511 326.467 196.319C326.007 196.128 325.514 196.031 325.015 196.035C324.658 196.064 324.299 196.064 323.942 196.035C323.608 195.95 323.293 195.803 323.014 195.6C322.252 195.156 321.533 194.641 320.867 194.062C320.418 193.538 319.997 192.991 319.605 192.423Z" fill="#473F47"/>
</g>
<defs>
<linearGradient id="paint0_linear" x1="-155.262" y1="-68.2901" x2="934.009" y2="746.206" gradientUnits="userSpaceOnUse">
<stop offset="0.01"/>
<stop offset="0.08" stop-opacity="0.69"/>
<stop offset="0.21" stop-opacity="0.32"/>
<stop offset="1" stop-opacity="0"/>
</linearGradient>
<linearGradient id="paint1_linear" x1="56677.8" y1="20568.5" x2="60850.7" y2="55082" gradientUnits="userSpaceOnUse">
<stop offset="0.01"/>
<stop offset="0.08" stop-opacity="0.69"/>
<stop offset="0.21" stop-opacity="0.32"/>
<stop offset="1" stop-opacity="0"/>
</linearGradient>
<linearGradient id="paint2_linear" x1="47211.8" y1="5428.02" x2="46131.1" y2="29916.4" gradientUnits="userSpaceOnUse">
<stop offset="0.01"/>
<stop offset="0.08" stop-opacity="0.69"/>
<stop offset="0.21" stop-opacity="0.32"/>
<stop offset="1" stop-opacity="0"/>
</linearGradient>
<linearGradient id="paint3_linear" x1="46838.8" y1="5421.01" x2="47282.6" y2="17516.8" gradientUnits="userSpaceOnUse">
<stop offset="0.01"/>
<stop offset="0.08" stop-opacity="0.69"/>
<stop offset="0.21" stop-opacity="0.32"/>
<stop offset="1" stop-opacity="0"/>
</linearGradient>
<linearGradient id="paint4_linear" x1="17091.9" y1="5795.8" x2="16369.8" y2="17970.8" gradientUnits="userSpaceOnUse">
<stop offset="0.01"/>
<stop offset="0.08" stop-opacity="0.69"/>
<stop offset="0.21" stop-opacity="0.32"/>
<stop offset="1" stop-opacity="0"/>
</linearGradient>
<linearGradient id="paint5_linear" x1="7855.69" y1="4051.28" x2="7747.56" y2="4986.05" gradientUnits="userSpaceOnUse">
<stop offset="0.01"/>
<stop offset="0.08" stop-opacity="0.69"/>
<stop offset="0.21" stop-opacity="0.32"/>
<stop offset="1" stop-opacity="0"/>
</linearGradient>
<linearGradient id="paint6_linear" x1="56556.3" y1="5977.52" x2="68721" y2="145318" gradientUnits="userSpaceOnUse">
<stop offset="0.01"/>
<stop offset="0.08" stop-opacity="0.69"/>
<stop offset="0.21" stop-opacity="0.32"/>
<stop offset="1" stop-opacity="0"/>
</linearGradient>
<linearGradient id="paint7_linear" x1="44077.9" y1="10138.8" x2="45148.7" y2="20259.4" gradientUnits="userSpaceOnUse">
<stop offset="0.01"/>
<stop offset="0.08" stop-opacity="0.69"/>
<stop offset="0.21" stop-opacity="0.32"/>
<stop offset="1" stop-opacity="0"/>
</linearGradient>
<linearGradient id="paint8_linear" x1="12115.7" y1="8675.84" x2="19416.5" y2="8092.36" gradientUnits="userSpaceOnUse">
<stop offset="0.01"/>
<stop offset="0.08" stop-opacity="0.69"/>
<stop offset="0.21" stop-opacity="0.32"/>
<stop offset="0.9999" stop-opacity="0"/>
<stop offset="1" stop-opacity="0"/>
</linearGradient>
<linearGradient id="paint9_linear" x1="3737.43" y1="1441.51" x2="5713.93" y2="3173.58" gradientUnits="userSpaceOnUse">
<stop offset="0.01"/>
<stop offset="0.08" stop-opacity="0.69"/>
<stop offset="0.21" stop-opacity="0.32"/>
<stop offset="1" stop-opacity="0"/>
</linearGradient>
<clipPath id="clip0">
<rect width="529" height="366" fill="white"/>
</clipPath>
</defs>
</svg>
