<svg width="56" height="56" viewBox="0 0 56 56" fill="none" xmlns="http://www.w3.org/2000/svg">
<path d="M52.5 42V38.5H48.8232C48.5976 37.4045 48.1626 36.3629 47.5422 35.4322L50.1497 32.8247L47.6753 30.3503L45.0678 32.9578C44.1371 32.3374 43.0955 31.9024 42 31.6767V28H38.5V31.6767C37.4045 31.9024 36.3629 32.3374 35.4322 32.9578L32.8247 30.3503L30.3503 32.8247L32.9578 35.4322C32.3374 36.3629 31.9024 37.4045 31.6767 38.5H28V42H31.6767C31.9024 43.0955 32.3374 44.1371 32.9578 45.0678L30.3503 47.6753L32.8247 50.1497L35.4322 47.5422C36.3629 48.1626 37.4045 48.5976 38.5 48.8232V52.5H42V48.8232C43.0955 48.5976 44.1371 48.1626 45.0678 47.5422L47.6753 50.1497L50.1497 47.6753L47.5422 45.0678C48.1626 44.1371 48.5976 43.0955 48.8232 42H52.5ZM40.25 45.5C39.2116 45.5 38.1966 45.1921 37.3333 44.6152C36.4699 44.0383 35.797 43.2184 35.3996 42.2591C35.0023 41.2998 34.8983 40.2442 35.1009 39.2258C35.3034 38.2074 35.8035 37.2719 36.5377 36.5377C37.2719 35.8035 38.2074 35.3034 39.2258 35.1009C40.2442 34.8983 41.2998 35.0023 42.2591 35.3996C43.2184 35.797 44.0383 36.4699 44.6152 37.3333C45.1921 38.1966 45.5 39.2116 45.5 40.25C45.4986 41.642 44.945 42.9765 43.9608 43.9608C42.9765 44.945 41.642 45.4986 40.25 45.5Z" fill="#D45235"/>
<path d="M49 7H7C6.07203 7.00093 5.18233 7.36997 4.52615 8.02615C3.86997 8.68233 3.50093 9.57203 3.5 10.5V45.5C3.50093 46.428 3.86997 47.3177 4.52615 47.9739C5.18233 48.63 6.07203 48.9991 7 49H24.5V45.5H7V21H49V26.25H52.5V10.5C52.4991 9.57203 52.13 8.68233 51.4739 8.02615C50.8177 7.36997 49.928 7.00093 49 7ZM49 17.5H7V10.5H49V17.5Z" fill="#D45235"/>
<path d="M35 15.75C35.9665 15.75 36.75 14.9665 36.75 14C36.75 13.0335 35.9665 12.25 35 12.25C34.0335 12.25 33.25 13.0335 33.25 14C33.25 14.9665 34.0335 15.75 35 15.75Z" fill="#D45235"/>
<path d="M40.25 15.75C41.2165 15.75 42 14.9665 42 14C42 13.0335 41.2165 12.25 40.25 12.25C39.2835 12.25 38.5 13.0335 38.5 14C38.5 14.9665 39.2835 15.75 40.25 15.75Z" fill="#D45235"/>
<path d="M45.5 15.75C46.4665 15.75 47.25 14.9665 47.25 14C47.25 13.0335 46.4665 12.25 45.5 12.25C44.5335 12.25 43.75 13.0335 43.75 14C43.75 14.9665 44.5335 15.75 45.5 15.75Z" fill="#D45235"/>
</svg>
