<svg width="56" height="56" viewBox="0 0 56 56" fill="none" xmlns="http://www.w3.org/2000/svg">
<path d="M28.0004 16.7996C38.9204 16.7996 47.6004 14.2796 47.6004 11.1996C47.6004 8.11961 38.9204 5.59961 28.0004 5.59961C17.0804 5.59961 8.40039 8.11961 8.40039 11.1996C8.40039 14.2796 17.0804 16.7996 28.0004 16.7996ZM28.0004 41.9996C17.0804 41.9996 8.40039 39.4796 8.40039 36.3996V44.7996C8.40039 47.8796 17.0804 50.3996 28.0004 50.3996C38.9204 50.3996 47.6004 47.8796 47.6004 44.7996V36.3996C47.6004 39.4796 38.9204 41.9996 28.0004 41.9996ZM28.0004 30.7996C17.0804 30.7996 8.40039 28.2796 8.40039 25.1996V33.5996C8.40039 36.6796 17.0804 39.1996 28.0004 39.1996C38.9204 39.1996 47.6004 36.6796 47.6004 33.5996V25.1996C47.6004 28.2796 38.9204 30.7996 28.0004 30.7996ZM28.0004 19.5996C17.0804 19.5996 8.40039 17.0796 8.40039 13.9996V22.3996C8.40039 25.4796 17.0804 27.9996 28.0004 27.9996C38.9204 27.9996 47.6004 25.4796 47.6004 22.3996V13.9996C47.6004 17.0796 38.9204 19.5996 28.0004 19.5996Z" fill="#D45235"/>
</svg>
