<svg width="56" height="56" viewBox="0 0 56 56" fill="none" xmlns="http://www.w3.org/2000/svg">
<g clip-path="url(#clip0)">
<path d="M16.3337 25.6673V14.0007C16.3337 7.00065 21.0003 2.33398 28.0003 2.33398C35.0003 2.33398 39.667 7.00065 39.667 14.0007V25.6673H16.3337ZM28.0003 53.6673C32.3322 53.6673 36.4866 51.9465 39.5497 48.8834C42.6128 45.8203 44.3337 41.6659 44.3337 37.334C44.3337 33.0021 42.6128 28.8477 39.5497 25.7846C36.4866 22.7215 32.3322 21.0007 28.0003 21.0007C23.6685 21.0007 19.514 22.7215 16.4509 25.7846C13.3878 28.8477 11.667 33.0021 11.667 37.334C11.667 41.6659 13.3878 45.8203 16.4509 48.8834C19.514 51.9465 23.6685 53.6673 28.0003 53.6673V53.6673ZM28.0003 35.0006V44.334V35.0006ZM28.0003 37.334C28.6192 37.334 29.2127 37.0882 29.6502 36.6506C30.0878 36.213 30.3337 35.6195 30.3337 35.0006C30.3337 34.3818 30.0878 33.7883 29.6502 33.3507C29.2127 32.9131 28.6192 32.6673 28.0003 32.6673C27.3815 32.6673 26.788 32.9131 26.3504 33.3507C25.9128 33.7883 25.667 34.3818 25.667 35.0006C25.667 35.6195 25.9128 36.213 26.3504 36.6506C26.788 37.0882 27.3815 37.334 28.0003 37.334V37.334Z" stroke="#D45235" stroke-width="5.41667"/>
</g>
<defs>
<clipPath id="clip0">
<rect width="56" height="56" fill="white"/>
</clipPath>
</defs>
</svg>
