<svg width="54" height="47" viewBox="0 0 54 47" fill="none" xmlns="http://www.w3.org/2000/svg">
<path fill-rule="evenodd" clip-rule="evenodd" d="M0.808328 20.4737C3.80126 8.44415 14.6037 0 27 0C39.3963 0 50.1987 8.44415 53.1917 20.4737H50.8259C46.8349 20.4149 42.9257 21.6077 39.6473 23.8844C39.4581 24.0214 39.2606 24.1465 39.0559 24.259H38.7799C38.5751 24.1465 38.3776 24.0214 38.1884 23.8844C31.4231 19.3352 22.5769 19.3352 15.8116 23.8844C15.6224 24.0214 15.4249 24.1465 15.2202 24.259H14.9441C14.7394 24.1465 14.5419 24.0214 14.3527 23.8844C11.0743 21.6077 7.16514 20.4149 3.17415 20.4737H0.808328ZM46.5674 32.8351C47.7818 31.8893 49.2871 31.3946 50.8259 31.4354H54V25.1068H50.8259C48.1155 25.074 45.467 25.9176 43.2749 27.512C40.7428 29.3788 37.2901 29.3788 34.7579 27.512C30.1545 24.3075 24.0427 24.3075 19.4392 27.512C16.9071 29.3788 13.4544 29.3788 10.9222 27.512C8.70309 25.8972 6.01668 25.0525 3.27273 25.1068H0V31.4354H3.17415C4.71294 31.3946 6.21816 31.8893 7.43264 32.8351C12.0281 36.0421 18.1361 36.0421 22.7317 32.8351C23.9477 31.8922 25.4518 31.3978 26.9901 31.4354C28.5294 31.3912 30.0357 31.8864 31.2486 32.8351C35.8521 36.0397 41.9639 36.0397 46.5674 32.8351ZM50.8259 42.7519C49.2871 42.7111 47.7818 43.2059 46.5674 44.1517C41.9639 47.3563 35.8521 47.3563 31.2486 44.1517C30.0357 43.2029 28.5294 42.7078 26.9901 42.7519C25.4518 42.7144 23.9477 43.2088 22.7317 44.1517C18.1361 47.3586 12.0281 47.3586 7.43264 44.1517C6.21816 43.2059 4.71294 42.7111 3.17415 42.7519H0V36.4233H3.27273C6.01668 36.3691 8.70309 37.2138 10.9222 38.8286C13.4544 40.6954 16.9071 40.6954 19.4392 38.8286C24.0427 35.624 30.1545 35.624 34.7579 38.8286C37.2901 40.6954 40.7428 40.6954 43.2749 38.8286C45.467 37.2342 48.1155 36.3906 50.8259 36.4233H54V42.7519H50.8259Z" fill="#D45235"/>
</svg>
